<svg width="47" height="27" fill="none" xmlns="http://www.w3.org/2000/svg"><path d="M46.396 26.074c-.894.437-1.288-.249-1.62-.935-2.12-4.384-4.24-8.769-6.339-13.153-.124-.27-.27-.561-.436-.894-2.223 4.572-4.405 9.102-6.608 13.652-.083.208-.187.395-.29.603-.312.707-.811 1.164-1.58.748-.706-.395-.686-1.018-.332-1.725 1.87-3.76 3.698-7.542 5.527-11.324A236.455 236.455 0 0036.92 8.37c.23-.498.5-.79 1.102-.768.56 0 .769.311.976.748 2.598 5.402 5.175 10.784 7.793 16.166.374.686.249 1.247-.395 1.558zm-29.07-.021c-1.06.5-1.372-.394-1.725-1.1-2.036-4.26-4.073-8.52-6.13-12.78-.125-.27-.29-.52-.602-1.08-2.245 4.716-4.343 9.184-6.484 13.651-.187.395-.478.748-.748 1.081-.311.395-.644.499-1.163.25-.499-.25-.499-.582-.457-.977.103-1.268.851-2.307 1.371-3.408 2.016-4.322 4.135-8.603 6.255-12.883.27-.54.477-1.205 1.267-1.226.873-.021 1.08.706 1.371 1.288 2.452 5.05 4.884 10.099 7.294 15.169.332.665.79 1.517-.25 2.015zm12.842-13.776c.02.56-.416 1.018-1.185.977-1.122-.063-2.265.02-3.387-.021-.748-.042-1.018.187-.997.976.041 1.767.02 3.512.02 5.278 0 1.767-.02 3.512 0 5.278.021.81-.207 1.476-1.142 1.455-.852-.021-1.04-.665-1.04-1.413.021-3.47-.02-6.94.021-10.41.021-.853-.207-1.206-1.1-1.123-1.081.083-2.162-.041-3.242.042-.832.062-1.226-.457-1.268-1.06-.041-.686.54-1.08 1.247-1.122.665-.042 1.35 0 2.015 0 2.826 0 5.673.042 8.5 0 .934-.083 1.516.312 1.558 1.143zm-.001-11.013c0 .81-.582 1.205-1.434 1.164-.935-.021-1.89.062-2.826-.021-.976-.083-1.33.166-1.288 1.247.104 2.015-.02 4.051.042 6.067.041.914-.291 1.122-1.143 1.122-.81 0-1.08-.208-1.06-1.06.062-2.057-.02-4.135.042-6.213.02-.852-.167-1.226-1.102-1.163-1.039.083-2.057.02-3.096.02-.769 0-1.413-.353-1.413-1.08 0-.79.582-1.164 1.496-1.122 1.746.083 3.512.02 5.257.02 1.725 0 3.429.042 5.133-.02.769 0 1.392.25 1.392 1.039z" fill="#812990"/></svg>